<svg width="1227" height="1224" viewBox="0 0 1227 1224" fill="none" xmlns="http://www.w3.org/2000/svg">
<g clip-path="url(#clip0_4_20)">
<path d="M528 377C531.743 378.45 534.972 380.109 538.359 382.273C539.384 382.927 540.409 383.581 541.466 384.255C542.549 384.955 543.633 385.654 544.75 386.375C545.307 386.733 545.863 387.091 546.437 387.46C560.58 396.566 574.324 406.095 587.39 416.698C588.887 417.909 590.4 419.1 591.914 420.289C599.83 426.701 607.035 433.823 614.25 441C614.764 441.509 615.278 442.017 615.807 442.541C622.676 449.355 629 456.393 635 464C636.126 465.39 637.252 466.779 638.379 468.168C658.607 493.546 675.357 521.626 691 550C691.579 551.049 692.159 552.098 692.755 553.178C725.75 613.12 746.096 675.385 752.657 743.559C752.91 746.095 753.179 748.627 753.464 751.16C754.793 763.054 755.697 774.953 756.433 786.897C756.625 789.997 756.828 793.096 757.031 796.195C757.635 805.621 758.154 815.056 758.336 824.5C758.364 825.247 758.393 825.994 758.422 826.763C758.466 832.219 757.093 836.473 754 841C744.033 849.058 732.173 847.886 720 847C701.913 844.804 666.39 838.39 653 825C652.649 822.514 652.355 820.043 652.098 817.547C652.016 816.784 651.934 816.02 651.849 815.234C651.583 812.74 651.323 810.245 651.062 807.75C650.881 806.04 650.698 804.33 650.516 802.62C649.588 793.877 648.717 785.132 647.938 776.375C647.218 768.344 646.04 760.436 644.719 752.484C644.032 748.311 643.498 744.137 643 739.938C639.8 713.553 634.734 686.884 627.62 661.279C626.892 658.605 626.2 655.922 625.508 653.238C612.89 604.665 594.421 562.469 562 524C561.563 523.478 561.125 522.955 560.674 522.417C554.351 514.879 547.833 507.561 541.072 500.413C539.996 499.275 538.927 498.13 537.868 496.977C536.599 495.635 535.29 494.329 533.948 493.061C529.085 488.207 527.086 484.864 527.005 477.963C527.033 476.976 527.062 475.989 527.092 474.972C527.091 473.908 527.089 472.844 527.088 471.747C527.094 468.256 527.156 464.768 527.219 461.277C527.234 458.846 527.245 456.415 527.253 453.985C527.283 447.607 527.362 441.231 527.451 434.854C527.533 428.338 527.569 421.823 527.609 415.307C527.695 402.537 527.83 389.769 528 377Z" fill="#008BFD"/>
<path d="M524 597C556.754 637.933 569.622 710.235 576.735 760.382C577.126 763.13 577.526 765.875 577.926 768.621C579.199 777.473 580.316 786.247 580.785 795.183C580.99 797.869 581.466 800.364 582 803C582.375 807.056 582.554 811.12 582.75 815.188C582.818 816.293 582.887 817.398 582.957 818.537C583.007 819.591 583.058 820.645 583.109 821.73C583.161 822.694 583.212 823.657 583.265 824.649C583.177 825.425 583.09 826.201 583 827C580.081 828.946 578.139 829.639 574.793 830.516C573.742 830.794 572.69 831.073 571.607 831.361C570.479 831.654 569.35 831.948 568.188 832.25C565.828 832.873 563.469 833.497 561.109 834.121C559.92 834.434 558.731 834.747 557.506 835.07C551.424 836.684 545.359 838.363 539.296 840.046C526.799 843.482 515.041 845.195 502.063 845.375C500.532 845.431 500.532 845.431 498.971 845.488C490.434 845.586 484 843.507 477.527 837.832C476.74 836.832 476.74 836.832 475.938 835.812C475.39 835.138 474.842 834.464 474.277 833.77C464.368 820.042 473.463 781.439 475 765C475.118 763.73 475.235 762.461 475.356 761.152C477.054 743.297 479.718 725.631 483 708C483.21 706.871 483.419 705.743 483.635 704.58C488.749 677.831 497.446 651.656 509 627C509.498 625.937 509.995 624.873 510.507 623.777C520.156 603.248 520.156 603.248 524 597Z" fill="#FDFDFD"/>
</g>
<defs>
<clipPath id="clip0_4_20">
<rect width="1227" height="1224" fill="white"/>
</clipPath>
</defs>
</svg>
